<svg version="1.1" id="Layer_1" xmlns="http://www.w3.org/2000/svg" xmlns:xlink="http://www.w3.org/1999/xlink" x="0px" y="0px"
	 width="100%" viewBox="0 0 192 192" enable-background="new 0 0 192 192" xml:space="preserve">
<path fill="#ffffff" opacity="1.000000" stroke="none"
	d="
M66.330673,114.202499 
	C63.303577,113.849449 62.700893,112.087715 62.700245,109.882584 
	C62.697659,101.059067 62.763592,92.234741 62.659019,83.412430 
	C62.617229,79.886909 64.413574,78.689781 67.589577,78.693886 
	C89.732391,78.722542 111.875267,78.764969 134.018036,78.737373 
	C137.665817,78.732826 139.097122,80.500557 139.078094,83.956459 
	C139.032272,92.279411 138.968597,100.603714 139.073563,108.925438 
	C139.125992,113.082947 137.187820,114.338036 133.230469,114.315514 
	C111.087791,114.189522 88.944084,114.242508 66.330673,114.202499 
z"/>
<path fill="#ffffff" opacity="1.000000" stroke="none"
	d="
M117.999496,126.323746 
	C101.166481,126.323204 84.833214,126.276077 68.500641,126.361931 
	C65.043175,126.380104 62.724834,125.872627 62.758015,121.564560 
	C62.791759,117.183525 65.365906,116.832382 68.674149,116.837646 
	C90.340408,116.872131 112.006844,116.894836 133.672958,116.832169 
	C137.166519,116.822067 139.340286,117.471550 139.349274,121.732658 
	C139.358749,126.222214 136.801712,126.416176 133.498749,126.350861 
	C128.500763,126.252045 123.499413,126.324753 117.999496,126.323746 
z"/>
<path fill="#ffffff" opacity="1.000000" stroke="none"
	d="
M101.932938,128.799103 
	C106.213875,128.365784 108.649635,129.529465 108.204552,133.912079 
	C107.829399,137.606033 109.458900,139.152496 113.128876,138.742554 
	C114.278748,138.614120 115.457184,138.718719 116.621696,138.749191 
	C118.695831,138.803467 120.970825,138.972702 121.059990,141.630829 
	C121.157494,144.537628 118.695557,144.377029 116.719070,144.393509 
	C109.403351,144.454559 102.087074,144.459854 94.770996,144.462875 
	C91.109322,144.464401 87.447441,144.430817 83.786041,144.383331 
	C81.976166,144.359863 80.285759,143.838440 80.233955,141.733871 
	C80.183113,139.668304 81.829681,138.991821 83.615250,138.821518 
	C84.771324,138.711258 85.958908,138.625259 87.104286,138.762619 
	C91.774094,139.322601 94.242378,137.979630 94.064507,132.606827 
	C93.879204,127.009857 98.582817,129.317429 101.932938,128.799103 
z"/>
<path fill="#ffffff" opacity="1.000000" stroke="none"
	d="
M101.023453,76.684959 
	C98.548500,76.550751 97.735237,75.335754 97.738121,73.382141 
	C97.749443,65.730431 97.745750,58.078701 97.748001,50.426975 
	C97.748413,49.027191 98.210243,47.850651 99.920143,47.236290 
	C98.369606,46.229656 97.182129,45.635830 96.209000,44.794174 
	C93.135933,42.136299 92.803467,37.462116 95.382790,34.505592 
	C97.720810,31.825668 102.498848,31.501463 105.366173,33.828194 
	C108.262733,36.178654 109.136757,41.048397 106.197777,43.554020 
	C103.181038,46.125946 103.326500,48.843414 103.407394,52.109165 
	C103.572090,58.758774 103.474037,65.416191 103.401634,72.069489 
	C103.382767,73.803009 103.873215,75.885406 101.023453,76.684959 
z"/>
<path fill="#ffffff" opacity="1.000000" stroke="none"
	d="
M153.796051,97.222885 
	C150.171539,97.207916 147.018402,97.190567 143.865356,97.162590 
	C141.629791,97.142746 140.525513,96.090935 140.614655,93.770424 
	C140.697067,91.624985 141.926315,90.898926 143.839340,90.853615 
	C144.668869,90.833961 145.512314,90.703453 146.325531,90.808418 
	C150.733322,91.377426 152.396011,89.412231 151.959778,85.107338 
	C151.743530,82.973358 151.941940,80.796242 151.970612,78.638878 
	C151.999771,76.442772 152.477554,74.683029 155.270309,74.726021 
	C157.854462,74.765816 158.178055,76.450653 158.189026,78.417068 
	C158.216812,83.395973 158.194046,88.375275 158.240921,93.353943 
	C158.266602,96.080582 156.927017,97.302269 153.796051,97.222885 
z"/>
<path fill="#ffffff" opacity="1.000000" stroke="none"
	d="
M60.405529,96.527245 
	C43.710411,98.899658 43.707283,98.899651 43.749565,82.796059 
	C43.754353,80.972923 43.782009,79.148262 43.865620,77.327362 
	C43.950935,75.469299 45.098610,74.791313 46.835403,74.738640 
	C48.617233,74.684593 49.758797,75.417358 49.862633,77.237122 
	C50.004189,79.717827 50.254459,82.234283 49.996647,84.686905 
	C49.490253,89.504181 51.434532,91.368271 56.205822,90.841011 
	C60.172447,90.402695 62.457642,91.731834 60.405529,96.527245 
z"/>
<path fill="#ffffff" opacity="1.000000" stroke="none"
	d="
M73.794128,60.154133 
	C67.670723,62.171799 63.373390,60.206299 62.797737,55.343315 
	C62.361305,51.656437 63.755905,48.808117 67.402672,47.446781 
	C70.615547,46.247425 73.380844,47.206627 75.352425,49.838020 
	C78.077087,53.474518 77.600510,56.937283 73.794128,60.154133 
z"/>
<path fill="#ffffff" opacity="1.000000" stroke="none"
	d="
M148.943588,69.886482 
	C146.889465,65.339142 148.096863,61.948524 152.024826,59.971340 
	C155.274734,58.335464 158.644043,59.005032 160.857193,62.084442 
	C163.191269,65.332130 162.695480,68.687965 159.956406,71.537430 
	C157.135605,74.471924 153.155243,73.923370 148.943588,69.886482 
z"/>
<path fill="#ffffff" opacity="1.000000" stroke="none"
	d="
M125.455597,57.070827 
	C124.241386,51.118633 125.839684,47.733822 129.923492,46.821495 
	C134.061081,45.897152 137.644974,48.157997 138.592194,52.276123 
	C139.370880,55.661583 138.044662,58.262070 135.215881,59.881332 
	C131.390427,62.071114 128.209702,60.725010 125.455597,57.070827 
z"/>
<path fill="#ffffff" opacity="1.000000" stroke="none"
	d="
M53.215607,63.075218 
	C55.094940,67.730721 53.590115,70.964874 49.719566,72.916313 
	C46.333714,74.623375 42.203632,72.855835 40.540821,69.334595 
	C38.906723,65.874161 39.738754,62.831535 42.698204,60.550652 
	C45.782703,58.173382 49.730282,59.094170 53.215607,63.075218 
z"/>
<path fill="#ffffff" opacity="1.000000" stroke="none"
	d="
M127.030891,76.921562 
	C125.595329,76.850952 124.595428,76.832428 123.607010,76.716286 
	C121.631271,76.484131 120.669151,75.401810 120.824341,73.350975 
	C120.969200,71.436562 122.178429,70.683090 123.845497,70.795166 
	C127.536163,71.043266 129.026184,69.399063 128.723114,65.777954 
	C128.541595,63.609150 129.447189,62.242268 131.886017,62.396706 
	C134.221970,62.544624 134.347717,64.206596 134.365921,65.955360 
	C134.381531,67.453239 134.389313,68.951233 134.412262,70.448997 
	C134.516678,77.261978 134.518158,77.261955 127.030891,76.921562 
z"/>
<path fill="#ffffff" opacity="1.000000" stroke="none"
	d="
M74.825386,71.548325 
	C76.672562,71.679253 78.153862,71.769073 79.761238,71.866539 
	C80.944176,75.405861 80.378632,77.251945 76.235863,77.415154 
	C66.852493,77.784828 64.277908,74.525963 66.845276,65.198738 
	C67.341049,63.397625 68.401009,62.788864 70.095642,62.839752 
	C72.016586,62.897438 72.439362,64.212761 72.848946,65.786560 
	C73.346901,67.699959 71.567253,70.281624 74.825386,71.548325 
z"/>
</svg>